<mxfile host="app.diagrams.net" agent="Mozilla/5.0 (Macintosh; Intel Mac OS X 10_15_7) AppleWebKit/537.36 (KHTML, like Gecko) Chrome/132.0.0.0 Safari/537.36" version="26.0.14">
  <diagram name="Page-1" id="loYNeC-QI8PmxzMnw_u7">
    <mxGraphModel dx="1026" dy="684" grid="1" gridSize="10" guides="1" tooltips="1" connect="1" arrows="1" fold="1" page="1" pageScale="1" pageWidth="827" pageHeight="1169" math="0" shadow="0">
      <root>
        <mxCell id="0" />
        <mxCell id="1" parent="0" />
        <mxCell id="RW8oEeU4xmQAgKfR6BRh-1" value="" style="swimlane;startSize=0;" vertex="1" parent="1">
          <mxGeometry x="60" y="55" width="740" height="485" as="geometry">
            <mxRectangle x="20" y="50" width="50" height="40" as="alternateBounds" />
          </mxGeometry>
        </mxCell>
        <mxCell id="RW8oEeU4xmQAgKfR6BRh-15" value="" style="edgeStyle=orthogonalEdgeStyle;rounded=0;orthogonalLoop=1;jettySize=auto;html=1;" edge="1" parent="RW8oEeU4xmQAgKfR6BRh-1" source="QufMM0Epw_FlTeoEJ7gM-1" target="RW8oEeU4xmQAgKfR6BRh-14">
          <mxGeometry relative="1" as="geometry" />
        </mxCell>
        <mxCell id="RW8oEeU4xmQAgKfR6BRh-16" value="Not efficient" style="edgeLabel;html=1;align=center;verticalAlign=middle;resizable=0;points=[];" vertex="1" connectable="0" parent="RW8oEeU4xmQAgKfR6BRh-15">
          <mxGeometry x="0.1143" relative="1" as="geometry">
            <mxPoint as="offset" />
          </mxGeometry>
        </mxCell>
        <mxCell id="RW8oEeU4xmQAgKfR6BRh-18" value="" style="edgeStyle=orthogonalEdgeStyle;rounded=0;orthogonalLoop=1;jettySize=auto;html=1;" edge="1" parent="RW8oEeU4xmQAgKfR6BRh-1" source="QufMM0Epw_FlTeoEJ7gM-1" target="RW8oEeU4xmQAgKfR6BRh-17">
          <mxGeometry relative="1" as="geometry" />
        </mxCell>
        <mxCell id="RW8oEeU4xmQAgKfR6BRh-19" value="Solved" style="edgeLabel;html=1;align=center;verticalAlign=middle;resizable=0;points=[];" vertex="1" connectable="0" parent="RW8oEeU4xmQAgKfR6BRh-18">
          <mxGeometry x="-0.25" y="-1" relative="1" as="geometry">
            <mxPoint as="offset" />
          </mxGeometry>
        </mxCell>
        <mxCell id="QufMM0Epw_FlTeoEJ7gM-1" value="Spin Waiting" style="rounded=1;whiteSpace=wrap;html=1;" parent="RW8oEeU4xmQAgKfR6BRh-1" vertex="1">
          <mxGeometry x="370" y="205" width="120" height="60" as="geometry" />
        </mxCell>
        <mxCell id="RW8oEeU4xmQAgKfR6BRh-2" value="&lt;b&gt;&lt;font style=&quot;font-size: 15px;&quot;&gt;Concurrency Construct - Monitor&lt;/font&gt;&lt;/b&gt;" style="text;html=1;align=center;verticalAlign=middle;whiteSpace=wrap;rounded=0;" vertex="1" parent="RW8oEeU4xmQAgKfR6BRh-1">
          <mxGeometry y="20" width="290" height="30" as="geometry" />
        </mxCell>
        <mxCell id="RW8oEeU4xmQAgKfR6BRh-6" value="What" style="edgeStyle=orthogonalEdgeStyle;rounded=0;orthogonalLoop=1;jettySize=auto;html=1;" edge="1" parent="RW8oEeU4xmQAgKfR6BRh-1" source="RW8oEeU4xmQAgKfR6BRh-3" target="RW8oEeU4xmQAgKfR6BRh-4">
          <mxGeometry relative="1" as="geometry" />
        </mxCell>
        <mxCell id="RW8oEeU4xmQAgKfR6BRh-8" value="Why" style="edgeStyle=orthogonalEdgeStyle;rounded=0;orthogonalLoop=1;jettySize=auto;html=1;" edge="1" parent="RW8oEeU4xmQAgKfR6BRh-1" source="RW8oEeU4xmQAgKfR6BRh-3" target="RW8oEeU4xmQAgKfR6BRh-7">
          <mxGeometry relative="1" as="geometry" />
        </mxCell>
        <mxCell id="RW8oEeU4xmQAgKfR6BRh-11" value="" style="edgeStyle=orthogonalEdgeStyle;rounded=0;orthogonalLoop=1;jettySize=auto;html=1;entryX=0;entryY=0.5;entryDx=0;entryDy=0;" edge="1" parent="RW8oEeU4xmQAgKfR6BRh-1" source="RW8oEeU4xmQAgKfR6BRh-3" target="QufMM0Epw_FlTeoEJ7gM-1">
          <mxGeometry relative="1" as="geometry">
            <mxPoint x="300" y="235" as="targetPoint" />
          </mxGeometry>
        </mxCell>
        <mxCell id="RW8oEeU4xmQAgKfR6BRh-12" value="Implemenation" style="edgeLabel;html=1;align=center;verticalAlign=middle;resizable=0;points=[];" vertex="1" connectable="0" parent="RW8oEeU4xmQAgKfR6BRh-11">
          <mxGeometry x="-0.34" relative="1" as="geometry">
            <mxPoint x="21" as="offset" />
          </mxGeometry>
        </mxCell>
        <mxCell id="RW8oEeU4xmQAgKfR6BRh-3" value="Monitor" style="rounded=1;whiteSpace=wrap;html=1;" vertex="1" parent="RW8oEeU4xmQAgKfR6BRh-1">
          <mxGeometry x="100" y="205" width="120" height="60" as="geometry" />
        </mxCell>
        <mxCell id="RW8oEeU4xmQAgKfR6BRh-4" value="&lt;ol&gt;&lt;li&gt;It is a mutex + conditional variable (one or more)&lt;/li&gt;&lt;li&gt;An entity with entry set and wait set&lt;/li&gt;&lt;/ol&gt;&lt;div&gt;&lt;br&gt;&lt;/div&gt;&lt;div&gt;&lt;br&gt;&lt;/div&gt;" style="text;html=1;align=left;verticalAlign=middle;whiteSpace=wrap;rounded=0;" vertex="1" parent="RW8oEeU4xmQAgKfR6BRh-1">
          <mxGeometry x="20" y="80" width="280" height="55" as="geometry" />
        </mxCell>
        <mxCell id="RW8oEeU4xmQAgKfR6BRh-7" value="It solves the problem in multi-threaded applications." style="text;html=1;align=left;verticalAlign=middle;whiteSpace=wrap;rounded=0;" vertex="1" parent="RW8oEeU4xmQAgKfR6BRh-1">
          <mxGeometry x="70" y="330" width="180" height="30" as="geometry" />
        </mxCell>
        <mxCell id="RW8oEeU4xmQAgKfR6BRh-14" value="It Wastes CPU Cycles" style="text;html=1;align=center;verticalAlign=middle;whiteSpace=wrap;rounded=0;" vertex="1" parent="RW8oEeU4xmQAgKfR6BRh-1">
          <mxGeometry x="355" y="80" width="150" height="55" as="geometry" />
        </mxCell>
        <mxCell id="RW8oEeU4xmQAgKfR6BRh-17" value="Condition Variable" style="rounded=1;whiteSpace=wrap;html=1;" vertex="1" parent="RW8oEeU4xmQAgKfR6BRh-1">
          <mxGeometry x="570" y="205" width="120" height="60" as="geometry" />
        </mxCell>
        <mxCell id="RW8oEeU4xmQAgKfR6BRh-23" value="wait and signal methods" style="text;html=1;align=center;verticalAlign=middle;whiteSpace=wrap;rounded=0;" vertex="1" parent="RW8oEeU4xmQAgKfR6BRh-1">
          <mxGeometry x="550" y="105" width="140" height="30" as="geometry" />
        </mxCell>
        <mxCell id="RW8oEeU4xmQAgKfR6BRh-24" value="has" style="edgeStyle=orthogonalEdgeStyle;rounded=0;orthogonalLoop=1;jettySize=auto;html=1;entryX=0.571;entryY=0.967;entryDx=0;entryDy=0;entryPerimeter=0;" edge="1" parent="RW8oEeU4xmQAgKfR6BRh-1" source="RW8oEeU4xmQAgKfR6BRh-17" target="RW8oEeU4xmQAgKfR6BRh-23">
          <mxGeometry relative="1" as="geometry" />
        </mxCell>
        <mxCell id="RW8oEeU4xmQAgKfR6BRh-25" value="&lt;b&gt;&lt;font style=&quot;font-size: 15px;&quot;&gt;Predicate to be checked in while loop.&lt;/font&gt;&lt;/b&gt;" style="rounded=0;whiteSpace=wrap;html=1;align=center;" vertex="1" parent="RW8oEeU4xmQAgKfR6BRh-1">
          <mxGeometry x="360" y="280" width="340" height="60" as="geometry" />
        </mxCell>
        <mxCell id="RW8oEeU4xmQAgKfR6BRh-26" value="think why?" style="ellipse;shape=cloud;whiteSpace=wrap;html=1;" vertex="1" parent="RW8oEeU4xmQAgKfR6BRh-1">
          <mxGeometry x="300" y="310" width="120" height="80" as="geometry" />
        </mxCell>
        <mxCell id="RW8oEeU4xmQAgKfR6BRh-28" value="&lt;ol&gt;&lt;li&gt;In Java, every object is a conditional variable and has associated lock which is hidden from the developers&lt;/li&gt;&lt;li&gt;IllegalMonitorStateException - when is it thrown?&lt;/li&gt;&lt;li&gt;Multiple ways to acquire the object&#39;s lock.&lt;/li&gt;&lt;/ol&gt;" style="text;html=1;align=left;verticalAlign=middle;whiteSpace=wrap;rounded=0;" vertex="1" parent="RW8oEeU4xmQAgKfR6BRh-1">
          <mxGeometry x="30" y="420" width="750" height="30" as="geometry" />
        </mxCell>
        <mxCell id="RW8oEeU4xmQAgKfR6BRh-29" value="Amdahl Law" style="ellipse;whiteSpace=wrap;html=1;aspect=fixed;" vertex="1" parent="1">
          <mxGeometry x="930" y="50" width="80" height="80" as="geometry" />
        </mxCell>
        <mxCell id="RW8oEeU4xmQAgKfR6BRh-30" value="Moore&#39;s Law" style="ellipse;whiteSpace=wrap;html=1;aspect=fixed;" vertex="1" parent="1">
          <mxGeometry x="940" y="145" width="80" height="80" as="geometry" />
        </mxCell>
        <mxCell id="RW8oEeU4xmQAgKfR6BRh-31" value="" style="swimlane;startSize=0;" vertex="1" parent="1">
          <mxGeometry x="60" y="585" width="740" height="445" as="geometry">
            <mxRectangle x="60" y="585" width="50" height="40" as="alternateBounds" />
          </mxGeometry>
        </mxCell>
        <mxCell id="RW8oEeU4xmQAgKfR6BRh-36" value="What" style="edgeStyle=orthogonalEdgeStyle;rounded=0;orthogonalLoop=1;jettySize=auto;html=1;" edge="1" parent="RW8oEeU4xmQAgKfR6BRh-31" source="RW8oEeU4xmQAgKfR6BRh-33" target="RW8oEeU4xmQAgKfR6BRh-34">
          <mxGeometry relative="1" as="geometry" />
        </mxCell>
        <mxCell id="RW8oEeU4xmQAgKfR6BRh-39" value="" style="edgeStyle=orthogonalEdgeStyle;rounded=0;orthogonalLoop=1;jettySize=auto;html=1;" edge="1" parent="RW8oEeU4xmQAgKfR6BRh-31" source="RW8oEeU4xmQAgKfR6BRh-33" target="RW8oEeU4xmQAgKfR6BRh-38">
          <mxGeometry relative="1" as="geometry" />
        </mxCell>
        <mxCell id="RW8oEeU4xmQAgKfR6BRh-40" value="Does not mean" style="edgeLabel;html=1;align=center;verticalAlign=middle;resizable=0;points=[];" vertex="1" connectable="0" parent="RW8oEeU4xmQAgKfR6BRh-39">
          <mxGeometry x="-0.3134" y="1" relative="1" as="geometry">
            <mxPoint x="18" y="1" as="offset" />
          </mxGeometry>
        </mxCell>
        <mxCell id="RW8oEeU4xmQAgKfR6BRh-42" value="" style="edgeStyle=orthogonalEdgeStyle;rounded=0;orthogonalLoop=1;jettySize=auto;html=1;" edge="1" parent="RW8oEeU4xmQAgKfR6BRh-31" source="RW8oEeU4xmQAgKfR6BRh-33" target="RW8oEeU4xmQAgKfR6BRh-41">
          <mxGeometry relative="1" as="geometry" />
        </mxCell>
        <mxCell id="RW8oEeU4xmQAgKfR6BRh-43" value="Java Spec" style="edgeLabel;html=1;align=center;verticalAlign=middle;resizable=0;points=[];" vertex="1" connectable="0" parent="RW8oEeU4xmQAgKfR6BRh-42">
          <mxGeometry x="-0.1778" y="1" relative="1" as="geometry">
            <mxPoint as="offset" />
          </mxGeometry>
        </mxCell>
        <mxCell id="RW8oEeU4xmQAgKfR6BRh-33" value="Atomic Assignment" style="rounded=1;whiteSpace=wrap;html=1;" vertex="1" parent="RW8oEeU4xmQAgKfR6BRh-31">
          <mxGeometry x="100" y="185" width="120" height="60" as="geometry" />
        </mxCell>
        <mxCell id="RW8oEeU4xmQAgKfR6BRh-34" value="Multithreading revolves around the ability to execute actions atomically that is without interference from other threads." style="text;align=left;verticalAlign=middle;rounded=0;spacing=2;whiteSpace=wrap;" vertex="1" parent="RW8oEeU4xmQAgKfR6BRh-31">
          <mxGeometry x="50" y="35" width="220" height="60" as="geometry" />
        </mxCell>
        <mxCell id="RW8oEeU4xmQAgKfR6BRh-38" value="Thread Safety" style="rounded=1;whiteSpace=wrap;html=1;" vertex="1" parent="RW8oEeU4xmQAgKfR6BRh-31">
          <mxGeometry x="380" y="185" width="120" height="60" as="geometry" />
        </mxCell>
        <mxCell id="RW8oEeU4xmQAgKfR6BRh-41" value="&lt;ol&gt;&lt;li&gt;Assignment and read of primitive data types except double and long are atomic.&lt;/li&gt;&lt;li&gt;Read and Writes of volatile double and long are atomic&lt;/li&gt;&lt;/ol&gt;" style="text;align=left;verticalAlign=middle;whiteSpace=wrap;rounded=0;html=1;" vertex="1" parent="RW8oEeU4xmQAgKfR6BRh-31">
          <mxGeometry x="40" y="355" width="240" height="75" as="geometry" />
        </mxCell>
      </root>
    </mxGraphModel>
  </diagram>
</mxfile>
